<?xml version="1.0" encoding="UTF-8"?>
<svg id="Layer_1" xmlns="http://www.w3.org/2000/svg" version="1.1" viewBox="0 0 90 112.5">
  <!-- Generator: Adobe Illustrator 30.0.0, SVG Export Plug-In . SVG Version: 2.1.1 Build 123)  -->
  <path d="M22.69,55.83c-.09-3.95.68-7.88,2.27-11.5.59-1.4,1.07-2.85,1.42-4.33l.72-3.43c.16-.73.8-1.26,1.55-1.25h31.64c.51,0,.99.25,1.29.66l13.87,19.49c1.31,1.52,1.33,3.77.05,5.32-1.92,2.32-5.23,2.93-7.86,1.45-.15-.08-.28-.19-.39-.32l-3.44-3.74v32.51c0,3.5-2.83,6.33-6.33,6.33s-6.33-2.83-6.33-6.33v-13.51c-2.99,1.73-6.81.74-8.59-2.22-2.68,2.25-6.67,1.9-8.92-.78-.21-.25-.41-.52-.58-.81-2.67,2.25-6.67,1.91-8.92-.77-.96-1.14-1.49-2.59-1.49-4.08v-12.7ZM29.95,38.48l-.46,2.2c-.39,1.65-.92,3.26-1.58,4.82-1.49,3.4-2.2,7.1-2.06,10.81v12.23c0,1.75,1.42,3.16,3.16,3.16s3.16-1.42,3.16-3.16v-4.45c0-.87.71-1.58,1.58-1.58s1.58.71,1.58,1.58v6.03c0,1.75,1.42,3.16,3.16,3.16s3.16-1.42,3.16-3.16v-5.43c0-.87.71-1.58,1.58-1.58s1.58.71,1.58,1.58v7.01c0,1.75,1.42,3.16,3.16,3.16s3.16-1.42,3.16-3.16v-6.92c0-.87.71-1.58,1.58-1.58s1.58.71,1.58,1.58v25.9c0,1.75,1.42,3.16,3.16,3.16s3.16-1.42,3.16-3.16v-36.57c0-.87.71-1.58,1.58-1.58.44,0,.86.19,1.16.51l6,6.52c1.27.6,2.77.26,3.67-.82.3-.36.29-.89-.03-1.24-.04-.05-.08-.09-.12-.15l-13.43-18.89h-29.54Z"/>
  <path d="M27.09,36.89v-11.08c0-.87.71-1.58,1.58-1.58h31.99c.87,0,1.58.71,1.58,1.58v11.08c0,.87-.71,1.58-1.58,1.58s-1.58-.71-1.58-1.58v-9.49h-28.83v9.49c0,.87-.71,1.58-1.58,1.58s-1.58-.71-1.58-1.58Z"/>
</svg>